<?xml version="1.0" encoding="UTF-8"?>
<svg version="1.1" xmlns="http://www.w3.org/2000/svg" width="926" height="1024">
<path d="M0 0 C5.26664841 3.03688681 10.59760605 5.95481246 15.92871094 8.87658691 C26.22665273 14.52247136 36.4807932 20.24147215 46.6953125 26.03710938 C58.51469116 32.73722737 70.40492447 39.3099049 82.28808594 45.89599609 C96.08561262 53.54309986 109.87091269 61.20807848 123.59472656 68.98681641 C134.30667329 75.05150575 145.0738619 81.01630949 155.83984375 86.984375 C175.37811075 97.81591214 194.88712056 108.69836795 214.37207031 119.62548828 C227.3001447 126.87453189 240.24167757 134.09842904 253.20166016 141.2902832 C261.76967647 146.04694159 270.32231129 150.83053747 278.86962891 155.62426758 C286.5392498 159.92324421 294.22395837 164.19452535 301.91308594 168.45849609 C311.16405229 173.58972686 320.38714462 178.76715989 329.58984375 183.984375 C336.92667944 188.13870952 344.29045256 192.24307712 351.66308594 196.33349609 C353.3450708 197.26838867 353.3450708 197.26838867 355.06103516 198.22216797 C360.77996453 201.39998995 366.50513024 204.56563695 372.24121094 207.71240234 C374.46523872 208.94014113 376.68919965 210.16800103 378.91308594 211.39599609 C379.9254834 211.94698975 380.93788086 212.4979834 381.98095703 213.06567383 C397.80342008 221.83217362 411.17952918 233.65562606 416.34427226 251.55676675 C417.39235356 255.86229327 417.5696962 259.9278534 417.54535484 264.34319687 C417.54886092 265.15925183 417.55236699 265.9753068 417.55597931 266.8160907 C417.56526564 269.54410881 417.56037715 272.27191214 417.55551147 274.99993896 C417.55924912 276.97819703 417.5638511 278.95645363 417.56924212 280.93470788 C417.58147328 286.3662381 417.58121151 291.79770672 417.57885337 297.22924757 C417.57844523 303.08897825 417.58948402 308.94868917 417.59896851 314.80841064 C417.61558001 326.28694461 417.62107812 337.76545804 417.62219326 349.24400303 C417.62314364 358.57437641 417.62723213 367.90474351 417.63359451 377.23511505 C417.63538964 379.9222362 417.63716927 382.60935735 417.63894427 385.29647851 C417.63960741 386.29855909 417.63960741 386.29855909 417.64028395 387.32088372 C417.65259002 406.10858407 417.66048532 424.89628211 417.6595974 443.68398666 C417.65956624 444.39212884 417.65953508 445.10027101 417.65950298 445.82987204 C417.65933677 449.41891354 417.65913869 453.00795503 417.65893357 456.59699652 C417.65887373 457.66616345 417.65887373 457.66616345 417.65881268 458.75692971 C417.65873181 460.19834012 417.65864821 461.63975054 417.6585619 463.08116095 C417.65733652 485.50481683 417.67234815 507.92841221 417.69970703 530.35205078 C417.73044257 555.55353325 417.74763865 580.75497597 417.74578059 605.95647836 C417.74563133 608.64485693 417.74553391 611.3332355 417.74547195 614.02161407 C417.74543699 615.0145108 417.74543699 615.0145108 417.74540132 616.02746605 C417.74534364 626.0109087 417.75603008 635.99428816 417.77213669 645.97771454 C417.79034352 657.33570163 417.79469982 668.69358957 417.78111784 680.05158493 C417.77458582 685.84545895 417.77447971 691.63914271 417.79182434 697.43299866 C417.80754929 702.74043682 417.80469702 708.04753376 417.78725608 713.35496357 C417.78418496 715.2714813 417.78782276 717.18802445 417.79897623 719.10451218 C417.89242929 736.30638776 414.72413888 749.74388754 402.91308594 762.95849609 C396.62343828 768.86622966 388.77567115 772.73047606 381.28808594 776.89599609 C379.35924111 777.98111738 377.43087783 779.06709495 375.50292969 780.15380859 C370.18987178 783.14280046 364.8672064 786.11427522 359.54199219 789.08154297 C354.28646284 792.01214727 349.03751545 794.95448408 343.78808594 797.89599609 C337.515573 801.40936936 331.24254465 804.92181364 324.96777344 808.43115234 C314.89604472 814.06533722 304.8314725 819.71141858 294.78808594 825.39599609 C283.6933589 831.67563448 272.57195201 837.90700308 261.4453125 844.12988281 C256.22514885 847.04997745 251.00667821 849.97309441 245.78808594 852.89599609 C239.51549746 856.40923462 233.24254475 859.92181359 226.96777344 863.43115234 C216.89604472 869.06533722 206.8314725 874.71141858 196.78808594 880.39599609 C185.6933589 886.67563448 174.57195201 892.90700308 163.4453125 899.12988281 C158.22514885 902.04997745 153.00667821 904.97309441 147.78808594 907.89599609 C141.51549746 911.40923462 135.24254475 914.92181359 128.96777344 918.43115234 C118.89604472 924.06533722 108.8314725 929.71141858 98.78808594 935.39599609 C87.6933589 941.67563448 76.57195201 947.90700308 65.4453125 954.12988281 C60.22514885 957.04997745 55.00667821 959.97309441 49.78808594 962.89599609 C43.51549746 966.40923462 37.24254475 969.92181359 30.96777344 973.43115234 C29.92548584 974.01429199 28.88319824 974.59743164 27.80932617 975.19824219 C25.72049781 976.36689684 23.63146948 977.53519415 21.54223633 978.703125 C16.40594165 981.57750951 11.27854002 984.46608396 6.16699219 987.38427734 C-37.84989509 1012.5055511 -37.84989509 1012.5055511 -62.13769531 1006.17724609 C-70.09455493 1003.32495106 -77.37035308 999.04025013 -84.71191406 994.89599609 C-85.60201172 994.39745117 -86.49210937 993.89890625 -87.40917969 993.38525391 C-92.18124851 990.71174547 -96.9425807 988.01997636 -101.69628906 985.31396484 C-107.81097682 981.83426418 -113.94649026 978.3925317 -120.08691406 974.95849609 C-121.12541504 974.37745117 -122.16391602 973.79640625 -123.23388672 973.19775391 C-125.34074029 972.01906267 -127.44767402 970.84051472 -129.5546875 969.66210938 C-135.81520314 966.16005477 -142.07340019 962.65385856 -148.33203125 959.1484375 C-153.56466454 956.21786824 -158.79785628 953.28830565 -164.03222656 950.36083984 C-175.05361927 944.19540729 -186.06236725 938.0086564 -197.05273438 931.78808594 C-207.20184081 926.04687913 -217.37777164 920.35382999 -227.5546875 914.66210938 C-233.81520314 911.16005477 -240.07340019 907.65385856 -246.33203125 904.1484375 C-251.56466454 901.21786824 -256.79785628 898.28830565 -262.03222656 895.36083984 C-273.05361927 889.19540729 -284.06236725 883.0086564 -295.05273438 876.78808594 C-305.20184081 871.04687913 -315.37777164 865.35382999 -325.5546875 859.66210938 C-331.81520314 856.16005477 -338.07340019 852.65385856 -344.33203125 849.1484375 C-349.56466454 846.21786824 -354.79785628 843.28830565 -360.03222656 840.36083984 C-371.05361927 834.19540729 -382.06236725 828.0086564 -393.05273438 821.78808594 C-404.2514092 815.45315305 -415.48229432 809.17585439 -426.71191406 802.89599609 C-435.048016 798.23425865 -443.38209428 793.5689509 -451.71191406 788.89599609 C-452.7315625 788.32429687 -453.75121094 787.75259766 -454.80175781 787.16357422 C-460.60757453 783.9056605 -466.40410045 780.6322787 -472.18652344 777.33300781 C-473.79433466 776.41812219 -475.40474658 775.50778109 -477.01855469 774.60351562 C-491.88981624 766.26464853 -503.13620042 756.12920222 -508.07127392 739.19603324 C-509.51996101 731.73362039 -509.12544185 724.04866992 -509.09959412 716.47561646 C-509.10376974 714.48738138 -509.10924851 712.49914869 -509.11591393 710.51092041 C-509.13035721 705.06107503 -509.12612724 699.61138102 -509.11874712 694.1615274 C-509.11401501 688.27865034 -509.12652568 682.39580601 -509.13676453 676.51293945 C-509.15395698 664.99322515 -509.1547916 653.47356538 -509.14955162 641.95384158 C-509.14542304 632.59014185 -509.14689051 623.2264576 -509.15229988 613.86275864 C-509.15305675 612.51639041 -509.15381273 611.17002219 -509.15456783 609.82365396 C-509.15571305 607.7946862 -509.15686293 605.76571844 -509.15802707 603.73675069 C-509.16872889 584.87831238 -509.1734606 566.01988003 -509.16555691 547.1614399 C-509.16525973 546.45086403 -509.16496256 545.74028817 -509.16465638 545.0081797 C-509.16220756 539.23815807 -509.15959592 533.46813651 -509.15697225 527.69811495 C-509.14687066 505.19357173 -509.15522482 482.68910313 -509.1784668 460.18457031 C-509.20455108 434.88711624 -509.21738421 409.58970709 -509.21027905 384.29223907 C-509.20956301 381.59378108 -509.20888862 378.89532309 -509.2082386 376.19686508 C-509.20806879 375.53246063 -509.20789898 374.86805618 -509.20772403 374.18351826 C-509.20542311 364.1635076 -509.21343072 354.14354045 -509.22653008 344.12353897 C-509.24124644 332.72533758 -509.24189479 321.32724061 -509.22445916 309.92904128 C-509.21594225 304.11490471 -509.21381674 298.30095473 -509.22911072 292.48682785 C-509.24294678 287.16095954 -509.23820821 281.83543786 -509.21887148 276.50958966 C-509.21510789 274.58640482 -509.21804374 272.66319228 -509.22848313 270.74003209 C-509.3152986 253.51750589 -506.1638317 240.06585462 -494.33691406 226.83349609 C-488.04673643 220.93571139 -480.20263331 217.04718714 -472.71191406 212.89599609 C-470.61158196 211.72424957 -468.511326 210.55236657 -466.41113281 209.38037109 C-462.37940172 207.13480186 -458.34457093 204.89499311 -454.30613708 202.66151428 C-447.58609538 198.94449978 -440.89126001 195.18556713 -434.21191406 191.39599609 C-424.75838906 186.03514562 -415.26393306 180.75062201 -405.75878906 175.48193359 C-398.55733019 171.48660367 -391.37583274 167.45821814 -384.21191406 163.39599609 C-374.75824529 158.0353962 -365.2639359 152.75062358 -355.75878906 147.48193359 C-348.55733019 143.48660367 -341.37583274 139.45821814 -334.21191406 135.39599609 C-324.75824529 130.0353962 -315.2639359 124.75062358 -305.75878906 119.48193359 C-298.55733019 115.48660367 -291.37583274 111.45821814 -284.21191406 107.39599609 C-274.75824529 102.0353962 -265.2639359 96.75062358 -255.75878906 91.48193359 C-248.55733019 87.48660367 -241.37583274 83.45821814 -234.21191406 79.39599609 C-224.75824529 74.0353962 -215.2639359 68.75062358 -205.75878906 63.48193359 C-198.55733019 59.48660367 -191.37583274 55.45821814 -184.21191406 51.39599609 C-174.75824529 46.0353962 -165.2639359 40.75062358 -155.75878906 35.48193359 C-148.55733019 31.48660367 -141.37583274 27.45821814 -134.21191406 23.39599609 C-124.77114233 18.04270933 -115.29242897 12.76024925 -105.79614258 7.50610352 C-100.25692156 4.43735036 -94.73252476 1.3471672 -89.23925781 -1.80322266 C-88.211875 -2.39103516 -87.18449219 -2.97884766 -86.12597656 -3.58447266 C-84.21261543 -4.68176769 -82.30219402 -5.78421344 -80.39550781 -6.89306641 C-51.5443754 -23.42236102 -26.96224793 -15.74404188 0 0 Z " fill="#00599B" transform="translate(508.7119140625,16.10400390625)"/>
<path d="M0 0 C1.69058784 -0.00855011 1.69058784 -0.00855011 3.41532898 -0.01727295 C5.78932782 -0.02665728 8.1633393 -0.03323053 10.53735352 -0.03710938 C14.08959996 -0.04674716 17.64124976 -0.07780727 21.19335938 -0.109375 C35.9865149 -0.17775124 50.22078961 0.86993367 64.82421875 3.203125 C66.6179895 3.47092773 66.6179895 3.47092773 68.44799805 3.74414062 C100.31823987 8.61763726 130.64030159 18.53089547 159.82421875 32.203125 C161.11247559 32.80592285 161.11247559 32.80592285 162.42675781 33.42089844 C187.19926945 45.14132808 209.72684437 59.93124927 230.73583984 77.47949219 C232.25733742 78.73525241 233.793627 79.97315408 235.33837891 81.20019531 C241.93927483 86.47572841 248.04484394 92.11130834 253.98632812 98.10449219 C255.44835036 99.57725023 256.92079363 101.03897545 258.39453125 102.5 C264.63940206 108.73619583 270.32356599 115.29838053 275.82421875 122.203125 C276.69920608 123.24250569 277.5793311 124.27762904 278.46875 125.3046875 C285.52987573 133.52358339 291.72116012 142.2606204 297.82421875 151.203125 C298.52901367 152.2238208 298.52901367 152.2238208 299.24804688 153.26513672 C300.55952363 155.17218808 301.85152832 157.09078998 303.13671875 159.015625 C303.52802979 159.58394043 303.91934082 160.15225586 304.32250977 160.73779297 C306.85049767 164.60454135 306.85049767 164.60454135 306.73730469 167.18286133 C305.39509151 170.15259769 303.51689424 170.86322318 300.6640625 172.3828125 C299.57270996 172.97457275 298.48135742 173.56633301 297.35693359 174.17602539 C296.47917267 174.6403447 296.47917267 174.6403447 295.5836792 175.11404419 C292.47395601 176.7595379 289.38761101 178.44810783 286.296875 180.12890625 C285.66567749 180.47044235 285.03447998 180.81197845 284.38415527 181.16386414 C278.4127462 184.40215133 272.54892896 187.81274252 266.69921875 191.265625 C258.6283999 196.01238007 250.50605174 200.65040245 242.32421875 205.203125 C234.10219191 209.77878952 225.93842368 214.43886389 217.82421875 219.203125 C208.57373611 224.63416146 199.2545428 229.92746317 189.87426758 235.13110352 C184.93185736 237.87819231 180.02023813 240.6586454 175.16796875 243.5625 C174.29374268 244.08303955 173.4195166 244.6035791 172.51879883 245.13989258 C170.89241437 246.11344261 169.27201832 247.0970947 167.65893555 248.0925293 C166.94390869 248.51961182 166.22888184 248.94669434 165.4921875 249.38671875 C164.87625732 249.76368896 164.26032715 250.14065918 163.62573242 250.52905273 C161.27091542 251.41015448 160.13159876 251.14795351 157.82421875 250.203125 C156.18003924 248.16875072 154.75278603 246.19240657 153.32421875 244.015625 C148.01449653 236.2626683 142.11383644 229.17649689 135.82421875 222.203125 C135.14875 221.45417969 134.47328125 220.70523438 133.77734375 219.93359375 C123.99262092 209.66799779 111.97097374 201.41567836 99.82421875 194.203125 C99.24091797 193.85652832 98.65761719 193.50993164 98.05664062 193.15283203 C88.45295764 187.5418987 78.46761194 183.51619336 67.953125 179.93310547 C66.16224101 179.31902942 64.38238142 178.67293482 62.60546875 178.01953125 C22.91725036 164.3100257 -22.89629374 169.88413033 -60.28125 187.71875 C-100.94557959 207.90957899 -131.74094503 242.51745459 -147.17578125 285.203125 C-148.42223043 288.94830616 -149.5512554 292.71425206 -150.61328125 296.515625 C-150.96567871 297.76605591 -150.96567871 297.76605591 -151.32519531 299.04174805 C-154.99663937 313.10337877 -155.58989111 327.37902505 -155.55078125 341.828125 C-155.54957275 342.66006378 -155.54836426 343.49200256 -155.54711914 344.34915161 C-155.3834836 385.99589348 -139.54761928 425.58327075 -111.17578125 456.203125 C-110.65290527 456.7698291 -110.1300293 457.3365332 -109.59130859 457.92041016 C-81.87580756 487.59980852 -41.01677266 508.61609065 -0.03320312 510.42944336 C4.39841045 510.56722015 8.82824909 510.59076998 13.26171875 510.578125 C14.05002075 510.5769165 14.83832275 510.57570801 15.6505127 510.57446289 C61.63835885 510.38399855 103.14660235 491.85141233 135.69921875 459.703125 C145.45283576 449.85108857 153.32491611 438.82913887 160.82421875 427.203125 C170.75703644 432.0258114 180.40785692 437.2494843 190.03710938 442.64697266 C194.94288432 445.38605898 199.86485266 448.09585471 204.78561401 450.80789185 C206.65289601 451.83704107 208.51996123 452.86658254 210.38696289 453.89624023 C212.93189821 455.29976517 215.47690551 456.70315943 218.02197266 458.10644531 C222.92335306 460.80906832 227.82400595 463.51300947 232.72460938 466.21704102 C235.12814538 467.54324932 237.53179751 468.8692468 239.93554688 470.19506836 C245.42152066 473.22108645 250.90691757 476.24812972 256.38969421 479.27993774 C259.47168947 480.98412689 262.55418169 482.68741614 265.63671875 484.390625 C266.23525665 484.72147095 266.83379456 485.05231689 267.45046997 485.39318848 C277.01118495 490.67618262 286.60449268 495.89718273 296.23950195 501.04370117 C300.93378488 503.56616928 305.45951949 506.14273487 309.82421875 509.203125 C308.56355853 513.4355073 307.00329716 516.81031874 304.55078125 520.4765625 C303.89698486 521.45826416 303.24318848 522.43996582 302.56958008 523.45141602 C301.86986084 524.48322998 301.1701416 525.51504395 300.44921875 526.578125 C299.72822998 527.64796631 299.00724121 528.71780762 298.2644043 529.82006836 C286.27151778 547.50156432 273.08296482 563.59326118 258.51171875 579.203125 C257.8662207 579.89720459 257.22072266 580.59128418 256.55566406 581.30639648 C252.75620633 585.33395787 248.81169599 589.06742571 244.6081543 592.67089844 C242.47924941 594.49942 240.43762938 596.41290789 238.38671875 598.328125 C231.24598482 604.76685129 223.52758072 610.46308178 215.82421875 616.203125 C214.92678955 616.87843262 214.92678955 616.87843262 214.01123047 617.56738281 C174.446633 647.24939963 127.89324138 665.8324426 79.82421875 676.203125 C79.11974609 676.36361328 78.41527344 676.52410156 77.68945312 676.68945312 C41.15986831 685.01028807 1.74338954 684.09710313 -35.17578125 679.203125 C-36.00094238 679.10161133 -36.82610352 679.00009766 -37.67626953 678.89550781 C-97.55516098 671.39584441 -155.9773736 643.42892609 -202.17578125 605.203125 C-202.69414551 604.77499512 -203.21250977 604.34686523 -203.74658203 603.90576172 C-209.57401499 599.07915276 -215.33250671 594.25191272 -220.5859375 588.79296875 C-222.28833178 587.09057447 -224.08169117 585.56287966 -225.92578125 584.015625 C-231.490367 579.2001181 -236.30446459 573.69947157 -241.17578125 568.203125 C-241.88758545 567.40841797 -241.88758545 567.40841797 -242.61376953 566.59765625 C-260.60082517 546.4589806 -275.55052333 524.03046915 -288.17578125 500.203125 C-288.70316895 499.20829102 -288.70316895 499.20829102 -289.24121094 498.19335938 C-330.08799211 420.40857993 -338.91929886 326.54404599 -313.42578125 242.453125 C-298.64998817 195.00573043 -274.71139077 152.74228846 -242.17578125 115.203125 C-241.48355469 114.39746094 -240.79132813 113.59179688 -240.078125 112.76171875 C-230.21006833 101.52468312 -219.6150874 90.50898998 -207.81640625 81.2890625 C-205.39320752 79.37487889 -203.07330886 77.37358395 -200.75610352 75.33349609 C-187.46342717 63.72268317 -172.33869033 54.386527 -157.19384766 45.40380859 C-155.3816036 44.32558258 -153.58065385 43.2284269 -151.78125 42.12890625 C-126.55335271 27.08978489 -98.23792856 16.61172732 -69.74243164 9.84179688 C-67.14446891 9.1953334 -64.58588422 8.45540422 -62.015625 7.70703125 C-55.5398537 5.92422087 -48.96379895 4.89780882 -42.33325195 3.89550781 C-40.24363637 3.57893629 -38.15600593 3.25115525 -36.06835938 2.921875 C-24.0388947 1.06254948 -12.18097152 0.04943923 0 0 Z " fill="#FEFEFE" transform="translate(449.17578125,170.796875)"/>
<path d="M0 0 C5.26664841 3.03688681 10.59760605 5.95481246 15.92871094 8.87658691 C26.22665273 14.52247136 36.4807932 20.24147215 46.6953125 26.03710938 C58.51469116 32.73722737 70.40492447 39.3099049 82.28808594 45.89599609 C96.08561262 53.54309986 109.87091269 61.20807848 123.59472656 68.98681641 C134.30667329 75.05150575 145.0738619 81.01630949 155.83984375 86.984375 C175.37811075 97.81591214 194.88712056 108.69836795 214.37207031 119.62548828 C227.3001447 126.87453189 240.24167757 134.09842904 253.20166016 141.2902832 C261.76967647 146.04694159 270.32231129 150.83053747 278.86962891 155.62426758 C286.5392498 159.92324421 294.22395837 164.19452535 301.91308594 168.45849609 C311.16405229 173.58972686 320.38714462 178.76715989 329.58984375 183.984375 C336.92667944 188.13870952 344.29045256 192.24307712 351.66308594 196.33349609 C353.3450708 197.26838867 353.3450708 197.26838867 355.06103516 198.22216797 C360.77996453 201.39998995 366.50513024 204.56563695 372.24121094 207.71240234 C374.46523872 208.94014113 376.68919965 210.16800103 378.91308594 211.39599609 C379.9254834 211.94698975 380.93788086 212.4979834 381.98095703 213.06567383 C391.14080286 218.14072355 398.74762137 223.67848933 405.28808594 231.89599609 C396.1358461 237.75488522 386.70314588 243.05798323 377.20825195 248.33789062 C369.84968648 252.43856871 362.55127329 256.62889602 355.28808594 260.89599609 C346.1391056 266.26821854 336.91404844 271.48676479 327.64355469 276.64599609 C320.47454821 280.64564105 313.36717509 284.73950394 306.28808594 288.89599609 C297.03830227 294.32662219 287.71611451 299.61237531 278.3425293 304.82617188 C270.8181554 309.01718905 263.35372517 313.30163677 255.94702148 317.69750977 C250.50272476 320.89599609 250.50272476 320.89599609 248.28808594 320.89599609 C247.95808594 321.55599609 247.62808594 322.21599609 247.28808594 322.89599609 C246.98257813 322.28755859 246.67707031 321.67912109 246.36230469 321.05224609 C229.93962353 289.594716 203.01039854 258.03678132 175.19042969 236.18115234 C173.01960472 234.47195638 170.89993802 232.73823632 168.79199219 230.95458984 C133.49059947 201.26602782 89.85849246 179.2436744 45.33251953 167.44042969 C43.18312284 166.86804437 41.04299667 166.26626821 38.90136719 165.66552734 C28.4347032 162.81616527 17.86415013 160.86291664 7.16308594 159.14599609 C6.49823181 159.03908447 5.83337769 158.93217285 5.14837646 158.82202148 C-6.48828628 156.96694827 -17.80042299 155.74066763 -29.58691406 155.69287109 C-30.7096875 155.68717102 -31.83246094 155.68147095 -32.98925781 155.67559814 C-35.36262079 155.66619373 -37.73599655 155.65963241 -40.109375 155.65576172 C-43.64640912 155.64617366 -47.18283129 155.61515502 -50.71972656 155.58349609 C-104.91859061 155.33256338 -157.92168814 169.54415058 -205.71191406 194.89599609 C-206.43185547 195.27723633 -207.15179688 195.65847656 -207.89355469 196.05126953 C-228.25695525 206.91583535 -247.06258982 220.03079061 -264.71191406 234.89599609 C-265.73027344 235.72873047 -266.74863281 236.56146484 -267.79785156 237.41943359 C-282.36730452 249.46276623 -296.18131725 262.89955515 -307.71191406 277.89599609 C-308.55625 278.90017578 -309.40058594 279.90435547 -310.27050781 280.93896484 C-325.81051834 299.46412302 -338.81708735 320.35587324 -349.71191406 341.89599609 C-350.36812744 343.18183594 -350.36812744 343.18183594 -351.03759766 344.49365234 C-360.47590242 363.13825886 -368.0858798 382.76428312 -373.71191406 402.89599609 C-373.94475098 403.71310059 -374.17758789 404.53020508 -374.41748047 405.37207031 C-380.97406533 428.72271463 -385.48194685 453.58760979 -385.71191406 477.89599609 C-385.74043457 479.75514648 -385.74043457 479.75514648 -385.76953125 481.65185547 C-386.70254102 545.22728088 -373.5224169 603.28391854 -344.71191406 659.89599609 C-353.86551637 665.75575741 -363.29952292 671.05993618 -372.79614258 676.34008789 C-380.11305599 680.41712308 -387.36725434 684.58692025 -394.58691406 688.83349609 C-404.18740553 694.47525857 -413.89144474 699.90812674 -423.640625 705.28808594 C-432.09425777 709.9655689 -440.45030378 714.79153226 -448.77856445 719.68798828 C-457.05408777 724.54230337 -465.41161311 729.23980378 -473.80078125 733.89453125 C-478.56125822 736.54268847 -483.29399623 739.21750065 -487.95800781 742.03271484 C-488.74763916 742.50870117 -489.53727051 742.9846875 -490.35083008 743.47509766 C-491.79840566 744.35448521 -493.24071413 745.24262721 -494.67651367 746.14111328 C-496.31113878 747.13535465 -498.00750835 748.02679168 -499.71191406 748.89599609 C-500.70191406 748.56599609 -501.69191406 748.23599609 -502.71191406 747.89599609 C-503.89941406 745.33349609 -503.89941406 745.33349609 -504.71191406 742.89599609 C-505.37191406 742.89599609 -506.03191406 742.89599609 -506.71191406 742.89599609 C-508.42993227 737.6964973 -508.99918734 733.02577804 -508.96918297 727.54060841 C-508.97268904 726.72233054 -508.97619512 725.90405267 -508.97980744 725.0609785 C-508.98911038 722.31937762 -508.98420095 719.57798966 -508.9793396 716.83638 C-508.98307642 714.8507354 -508.98767807 712.86509226 -508.99307024 710.87945145 C-509.00531182 705.42285884 -509.0050384 699.96632748 -509.00268149 694.50972426 C-509.00227362 688.62475426 -509.01330971 682.73980397 -509.02279663 676.85484314 C-509.03941419 665.32470303 -509.04490653 653.79458337 -509.04602139 642.26443229 C-509.04694075 632.89208205 -509.05105889 623.51973845 -509.05742264 614.14739037 C-509.05921775 611.44877234 -509.06099738 608.7501543 -509.06277239 606.05153626 C-509.06321449 605.38063286 -509.06365659 604.70972946 -509.06411208 604.01849566 C-509.0764197 585.14827575 -509.08431329 566.27805815 -509.08342552 547.40783405 C-509.08339436 546.69646014 -509.08336321 545.98508623 -509.08333111 545.25215553 C-509.08316489 541.64669011 -509.08296681 538.0412247 -509.08276169 534.43575928 C-509.0827218 533.71971311 -509.08268191 533.00366694 -509.08264081 532.2659224 C-509.08255994 530.81790214 -509.08247634 529.36988188 -509.08239003 527.92186162 C-509.08116477 505.39767033 -509.09617335 482.87353928 -509.12353516 460.34936523 C-509.15427059 435.0376536 -509.17146675 409.72598155 -509.16960871 384.41425008 C-509.16945945 381.71406027 -509.16936204 379.01387046 -509.16930008 376.31368065 C-509.16927677 375.6488367 -509.16925346 374.98399274 -509.16922945 374.299002 C-509.16917176 364.27105848 -509.17985897 354.24316441 -509.19596481 344.21523476 C-509.21417167 332.80598664 -509.21852798 321.39683723 -509.20494597 309.98758087 C-509.19841377 304.16738565 -509.19830845 298.34737984 -509.21565247 292.52720261 C-509.23137678 287.19566957 -509.22852578 281.86447622 -509.2110842 276.5329515 C-509.20801292 274.60765563 -509.21165147 272.68233445 -509.22280435 270.75706843 C-509.31598471 253.52596655 -506.17023449 240.07301827 -494.33691406 226.83349609 C-488.04673643 220.93571139 -480.20263331 217.04718714 -472.71191406 212.89599609 C-470.61158196 211.72424957 -468.511326 210.55236657 -466.41113281 209.38037109 C-462.37940172 207.13480186 -458.34457093 204.89499311 -454.30613708 202.66151428 C-447.58609538 198.94449978 -440.89126001 195.18556713 -434.21191406 191.39599609 C-424.75838906 186.03514562 -415.26393306 180.75062201 -405.75878906 175.48193359 C-398.55733019 171.48660367 -391.37583274 167.45821814 -384.21191406 163.39599609 C-374.75824529 158.0353962 -365.2639359 152.75062358 -355.75878906 147.48193359 C-348.55733019 143.48660367 -341.37583274 139.45821814 -334.21191406 135.39599609 C-324.75824529 130.0353962 -315.2639359 124.75062358 -305.75878906 119.48193359 C-298.55733019 115.48660367 -291.37583274 111.45821814 -284.21191406 107.39599609 C-274.75824529 102.0353962 -265.2639359 96.75062358 -255.75878906 91.48193359 C-248.55733019 87.48660367 -241.37583274 83.45821814 -234.21191406 79.39599609 C-224.75824529 74.0353962 -215.2639359 68.75062358 -205.75878906 63.48193359 C-198.55733019 59.48660367 -191.37583274 55.45821814 -184.21191406 51.39599609 C-174.75824529 46.0353962 -165.2639359 40.75062358 -155.75878906 35.48193359 C-148.55733019 31.48660367 -141.37583274 27.45821814 -134.21191406 23.39599609 C-124.77114233 18.04270933 -115.29242897 12.76024925 -105.79614258 7.50610352 C-100.25692156 4.43735036 -94.73252476 1.3471672 -89.23925781 -1.80322266 C-88.211875 -2.39103516 -87.18449219 -2.97884766 -86.12597656 -3.58447266 C-84.21261543 -4.68176769 -82.30219402 -5.78421344 -80.39550781 -6.89306641 C-51.5443754 -23.42236102 -26.96224793 -15.74404188 0 0 Z " fill="#659AD2" transform="translate(508.7119140625,16.10400390625)"/>
<path d="M0 0 C3.3143611 3.18979968 5.37484665 6.18654021 7.5625 10.25 C19.11743226 31.13147268 34.42853822 50.08973369 50.62695312 67.50927734 C52.84409058 69.91643263 55.00917897 72.3702413 57.1875 74.8125 C60.57692988 78.54300459 64.03813225 81.96642451 67.89453125 85.20703125 C70.3733512 87.3179373 72.74079181 89.53286041 75.125 91.75 C124.72876762 136.85672276 191.51399835 166.33582954 258 174 C258.80663086 174.10151367 259.61326172 174.20302734 260.44433594 174.30761719 C295.59253959 178.63124177 333.17640561 177.53323585 367.68408203 169.52832031 C369.99042152 169.0021851 372.30280611 168.5250647 374.62109375 168.0546875 C399.32454392 162.83784101 424.45880028 154.37253608 447 143 C447.96905273 142.51950195 448.93810547 142.03900391 449.93652344 141.54394531 C476.46240549 128.34269239 500.71007953 112.55199671 523 93 C523.68578125 92.41347656 524.3715625 91.82695313 525.078125 91.22265625 C533.87158952 83.66692728 542.87623176 75.92646613 550.30859375 67.00390625 C552.39706916 64.52956933 554.6063039 62.18237061 556.8125 59.8125 C571.93462127 43.18500919 584.21806656 24.06513828 596 5 C598.82678062 5.61732044 601.18075324 6.48167811 603.73828125 7.828125 C604.82580688 8.39889771 604.82580688 8.39889771 605.93530273 8.98120117 C606.71977783 9.39990479 607.50425293 9.8186084 608.3125 10.25 C609.5655896 10.9138269 609.5655896 10.9138269 610.84399414 11.59106445 C618.23959576 15.53670348 625.52363196 19.67049776 632.8046875 23.82250977 C640.57490472 28.23629635 648.42652174 32.48577205 656.3125 36.6875 C665.307378 41.48167848 674.26795358 46.32545288 683.1640625 51.30078125 C690.59844858 55.45848321 698.064495 59.55925155 705.52441406 63.67089844 C706.77930649 64.36261276 708.03418923 65.05434466 709.2890625 65.74609375 C709.91772217 66.09261993 710.54638184 66.43914612 711.1940918 66.7961731 C715.12309609 68.96268301 719.04944463 71.13392595 722.97377014 73.30889893 C725.5839555 74.75542316 728.19495644 76.2004719 730.80599976 77.64544678 C732.04079857 78.3293298 733.27520733 79.01391765 734.50918579 79.69927979 C741.59499469 83.6344176 748.71107758 87.45333847 756 91 C758.57281882 83.77160428 760.36695592 76.49347179 762 69 C762.33 69 762.66 69 763 69 C764.10602751 81.16630259 757.53824244 91.83208335 750.3671875 101.11328125 C743.99771508 108.23966407 735.2405585 112.41558318 727 117 C725.07115517 118.08512129 723.14279189 119.17109886 721.21484375 120.2578125 C715.90178584 123.24680437 710.57912046 126.21827912 705.25390625 129.18554688 C699.9983769 132.11615118 694.74942951 135.05848799 689.5 138 C683.22748707 141.51337326 676.95445871 145.02581755 670.6796875 148.53515625 C660.60795878 154.16934113 650.54338657 159.81542249 640.5 165.5 C629.40527296 171.77963839 618.28386607 178.01100698 607.15722656 184.23388672 C601.93706291 187.15398136 596.71859227 190.07709832 591.5 193 C585.22741152 196.51323852 578.95445881 200.02581749 572.6796875 203.53515625 C562.60795878 209.16934113 552.54338657 214.81542249 542.5 220.5 C531.40527296 226.77963839 520.28386607 233.01100698 509.15722656 239.23388672 C503.93706291 242.15398136 498.71859227 245.07709832 493.5 248 C487.22741152 251.51323852 480.95445881 255.02581749 474.6796875 258.53515625 C464.60795878 264.16934113 454.54338657 269.81542249 444.5 275.5 C433.40527296 281.77963839 422.28386607 288.01100698 411.15722656 294.23388672 C405.93706291 297.15398136 400.71859227 300.07709832 395.5 303 C389.22741152 306.51323852 382.95445881 310.02581749 376.6796875 313.53515625 C375.6373999 314.1182959 374.5951123 314.70143555 373.52124023 315.30224609 C371.43241187 316.47090075 369.34338354 317.63919805 367.25415039 318.80712891 C362.11785571 321.68151341 356.99045408 324.57008786 351.87890625 327.48828125 C307.86201897 352.609555 307.86201897 352.609555 283.57421875 346.28125 C275.61735913 343.42895497 268.34156099 339.14425403 261 335 C260.10990234 334.50145508 259.21980469 334.00291016 258.30273438 333.48925781 C253.53066555 330.81574938 248.76933336 328.12398027 244.015625 325.41796875 C237.90093724 321.93826809 231.7654238 318.49653561 225.625 315.0625 C224.58649902 314.48145508 223.54799805 313.90041016 222.47802734 313.30175781 C220.37117378 312.12306658 218.26424004 310.94451863 216.15722656 309.76611328 C209.89671092 306.26405868 203.63851388 302.75786247 197.37988281 299.25244141 C192.14724952 296.32187215 186.91405778 293.39230956 181.6796875 290.46484375 C170.65829479 284.2994112 159.64954681 278.1126603 148.65917969 271.89208984 C138.51007325 266.15088304 128.33414242 260.4578339 118.15722656 254.76611328 C111.89671092 251.26405868 105.63851388 247.75786247 99.37988281 244.25244141 C94.14724952 241.32187215 88.91405778 238.39230956 83.6796875 235.46484375 C72.65829479 229.2994112 61.64954681 223.1126603 50.65917969 216.89208984 C40.51007325 211.15088304 30.33414242 205.4578339 20.15722656 199.76611328 C13.89671092 196.26405868 7.63851388 192.75786247 1.37988281 189.25244141 C-3.85275048 186.32187215 -9.08594222 183.39230956 -14.3203125 180.46484375 C-25.34170521 174.2994112 -36.35045319 168.1126603 -47.34082031 161.89208984 C-58.53949514 155.55715696 -69.77038025 149.2798583 -81 143 C-89.33610193 138.33826255 -97.67018022 133.67295481 -106 129 C-107.01964844 128.42830078 -108.03929687 127.85660156 -109.08984375 127.26757812 C-114.89566047 124.00966441 -120.69218638 120.7362826 -126.47460938 117.43701172 C-128.0824206 116.5221261 -129.69283252 115.61178499 -131.30664062 114.70751953 C-143.93622113 107.62564602 -154.09489393 99.75105121 -160 86 C-159.67 85.01 -159.34 84.02 -159 83 C-158.01 84.65 -157.02 86.3 -156 88 C-152.30186644 86.6027689 -148.90404002 84.93435305 -145.44921875 83.015625 C-144.37075684 82.41741943 -143.29229492 81.81921387 -142.18115234 81.20288086 C-141.0164714 80.55215348 -139.85192404 79.90118697 -138.6875 79.25 C-138.09108704 78.91775421 -137.49467407 78.58550842 -136.88018799 78.24319458 C-127.49192357 73.01251873 -118.18787507 67.64806942 -108.92260742 62.20214844 C-100.79519657 57.43463911 -92.58399919 52.82891056 -84.35058594 48.24755859 C-77.2234156 44.27163947 -70.16045222 40.19826782 -63.125 36.0625 C-53.54245598 30.43165068 -43.85757761 25.00750211 -34.1262207 19.63867188 C-22.63813238 13.28316898 -11.3071003 6.67164028 0 0 Z " fill="#004482" transform="translate(163,676)"/>
<path d="M0 0 C1.30946648 0.44657345 2.61937209 0.8918611 3.9296875 1.3359375 C26.28355342 9.10016025 45.61515561 22.11502454 63 38 C63.81984375 38.74765625 64.6396875 39.4953125 65.484375 40.265625 C74.39037499 48.79264627 81.76495663 58.92673301 88.66015625 69.109375 C89.99947773 71.1115247 89.99947773 71.1115247 92 73 C91.08089844 73.36480469 90.16179687 73.72960937 89.21484375 74.10546875 C83.7843818 76.437861 78.70159929 79.4072383 73.5625 82.3125 C72.46357422 82.93060547 71.36464844 83.54871094 70.23242188 84.18554688 C61.77983872 88.95552948 53.39334491 93.83371589 45.02368164 98.74731445 C36.86240862 103.52742207 28.61967515 108.15078948 20.35546875 112.75 C13.18646305 116.74964452 6.07907237 120.84348044 -1 125 C-10.14913289 130.37196793 -19.37403131 135.59076525 -28.64453125 140.75 C-35.81353695 144.74964452 -42.92092763 148.84348044 -50 153 C-59.14913289 158.37196793 -68.37403131 163.59076525 -77.64453125 168.75 C-84.81353957 172.74964599 -91.92086585 176.84358252 -99 181 C-108.224351 186.41450699 -117.52014472 191.68630694 -126.86206055 196.89501953 C-135.97821794 201.97890732 -145.04458668 207.14574936 -154.09912109 212.33837891 C-157.35193469 214.2015879 -160.60734403 216.06022638 -163.86328125 217.91796875 C-175.4260383 224.51642447 -186.98471072 231.12090155 -198.49267578 237.81469727 C-203.80694786 240.90347393 -203.80694786 240.90347393 -206 242 C-224.25520961 205.88891349 -231.47854815 163.86183948 -222 124 C-221.81195801 123.17935059 -221.62391602 122.35870117 -221.43017578 121.51318359 C-211.52986863 79.651503 -184.78247558 42.6321305 -149 19 C-148.41911621 18.61602051 -147.83823242 18.23204102 -147.23974609 17.83642578 C-104.06180751 -10.26578515 -48.62680171 -17.65431654 0 0 Z " fill="#659AD2" transform="translate(518,350)"/>
<path d="M0 0 C2.02453405 0.94529087 4.01612114 1.96261307 5.98046875 3.02734375 C7.13474365 3.64923584 8.28901855 4.27112793 9.47827148 4.91186523 C10.71480375 5.58685199 11.95121047 6.26206877 13.1875 6.9375 C14.46728259 7.63074535 15.74731391 8.3235317 17.02758789 9.01586914 C25.1029414 13.3900911 33.14926703 17.81659292 41.1640625 22.30078125 C47.36541545 25.76890586 53.59011591 29.19481322 59.8125 32.625 C62.32293696 34.00907778 64.83334691 35.39320455 67.34375 36.77734375 C67.97529999 37.12552155 68.60684998 37.47369934 69.25753784 37.83242798 C73.66295674 40.26155144 78.06629189 42.69442166 82.46875 45.12890625 C94.83039324 51.9627646 107.21108042 58.75748265 119.63964844 65.46923828 C130.83114204 71.51843682 141.96406302 77.67119869 153 84 C150.57738244 102.07141747 125.72779017 123.13588061 112.11010742 133.81152344 C81.21918095 157.16872624 45.26465469 169.27033246 6.625 169.4375 C5.87540009 169.44385468 5.12580017 169.45020935 4.35348511 169.45675659 C-6.73780033 169.51527818 -17.14434772 168.21627426 -28 166 C-29.42026063 165.72698612 -30.84075195 165.45516958 -32.26147461 165.18457031 C-61.96589493 159.34633239 -89.36757421 142.79504156 -111 122 C-111.46857422 121.55720703 -111.93714844 121.11441406 -112.41992188 120.65820312 C-122.6985153 110.91425696 -131.01686655 100.32873931 -138.6875 88.4375 C-139.13432129 87.75848633 -139.58114258 87.07947266 -140.04150391 86.37988281 C-143.02005047 81.62898781 -143.02005047 81.62898781 -142.93603516 78.9934082 C-141.54860312 76.03869182 -139.59691298 75.24054552 -136.76171875 73.671875 C-135.08783081 72.73190674 -135.08783081 72.73190674 -133.38012695 71.77294922 C-132.14932315 71.09850168 -130.91844545 70.42418898 -129.6875 69.75 C-128.41745191 69.04189051 -127.14817547 68.33239537 -125.87963867 67.62158203 C-123.23876112 66.14311788 -120.594635 64.67071558 -117.94824219 63.20214844 C-112.45202896 60.14526013 -107.00271424 57.00723396 -101.55032349 53.87310791 C-92.15289688 48.47575547 -82.71624924 43.15073574 -73.25 37.875 C-64.11816808 32.78489055 -55.07135588 27.56457415 -46.0559082 22.27148438 C-35.6301966 16.16594261 -25.0955641 10.25391154 -14.51513672 4.42089844 C-12.96006995 3.54238081 -11.42082598 2.63427712 -9.91064453 1.68066406 C-6.05014595 -0.75021277 -4.3521019 -1.27534267 0 0 Z " fill="#004482" transform="translate(456,513)"/>
</svg>
